# xmcd
#
# Track frame offsets:
#	150
#	12546
#	27214
#	48898
#	59441
#	76881
#	86374
#	103272
#	117146
#	134627
#
# Disc length: 1958 seconds
# Revision: 0
# Processed by: cddbd v1.5.2PL0 Copyright (c) Steve Scherf et al.
# Submitted via: dBpowerAMP V12.0
#
DISCID=7d07a40a
DTITLE=Mark Hail - Ride Hard
DYEAR=2001
DGENRE=Country
TTITLE0=Get Me Out Of Us
TTITLE1=Ride Hard
TTITLE2=Paper Hearts
TTITLE3=My Favorite Blondes
TTITLE4=Fall Softly
TTITLE5=Road Kill
TTITLE6=You Didn't Hear It From Me
TTITLE7=Give Up Sonora
TTITLE8=One Thing On Her Mind
TTITLE9=Heartache, You're The Best
EXTD=
EXTT0=
EXTT1=
EXTT2=
EXTT3=
EXTT4=
EXTT5=
EXTT6=
EXTT7=
EXTT8=
EXTT9=
PLAYORDER=
